<?xml version="1.0" encoding="UTF-8" standalone="no"?>
<svg
   xmlns:dc="http://purl.org/dc/elements/1.1/"
   xmlns:cc="http://creativecommons.org/ns#"
   xmlns:rdf="http://www.w3.org/1999/02/22-rdf-syntax-ns#"
   xmlns:svg="http://www.w3.org/2000/svg"
   xmlns="http://www.w3.org/2000/svg"
   xmlns:sodipodi="http://sodipodi.sourceforge.net/DTD/sodipodi-0.dtd"
   xmlns:inkscape="http://www.inkscape.org/namespaces/inkscape"
   height="2500"
   viewBox="-.035 -.035 75.07 75.07"
   width="2500"
   version="1.1"
   id="svg6"
   sodipodi:docname="OBS.svg"
   inkscape:version="0.92.4 (5da689c313, 2019-01-14)">
  <metadata
     id="metadata12">
    <rdf:RDF>
      <cc:Work
         rdf:about="">
        <dc:format>image/svg+xml</dc:format>
        <dc:type
           rdf:resource="http://purl.org/dc/dcmitype/StillImage" />
      </cc:Work>
    </rdf:RDF>
  </metadata>
  <defs
     id="defs10" />
  <sodipodi:namedview
     pagecolor="#ffffff"
     bordercolor="#666666"
     borderopacity="1"
     objecttolerance="10"
     gridtolerance="10"
     guidetolerance="10"
     inkscape:pageopacity="0"
     inkscape:pageshadow="2"
     inkscape:window-width="1920"
     inkscape:window-height="1027"
     id="namedview8"
     showgrid="false"
     inkscape:zoom="0.26700352"
     inkscape:cx="455.47072"
     inkscape:cy="1193.5555"
     inkscape:window-x="-8"
     inkscape:window-y="-8"
     inkscape:window-maximized="1"
     inkscape:current-layer="svg6" />
  <circle
     cx="37.5"
     cy="37.5"
     r="35.799999"
     id="circle2"
	 fill="none"
	 stroke="#ffffff" />
  <path
     d="m19.3 18.7c1.1-5.31 4.7-10.1 9.54-12.5-.842.855-1.86 1.51-2.64 2.44-3.19 3.44-4.63 8.42-3.75 13 1.11 6.99 7.68 12.7 14.8 12.6 5.52.247 10.9-2.93 13.6-7.72 5.78.196 11.4 3.18 14.7 7.97 1.69 2.5 3.01 5.43 3.1 8.48-1.07-4.05-3.76-7.65-7.43-9.68-3.55-2-7.91-2.51-11.8-1.33-4.88 1.4-8.91 5.39-10.3 10.3-1.18 3.91-.675 8.22 1.18 11.8-2.58 4.47-7.24 7.66-12.3 8.62-3.89.816-7.98.186-11.6-1.45 3.24.945 6.76 1.11 9.98-.035 4.32-1.43 7.89-4.9 9.46-9.18 1.74-4.66 1.08-10.2-1.85-14.2-2.19-3.15-5.64-5.37-9.39-6.16-1.19-.212-2.39-.308-3.59-.418-1.91-3.85-2.61-8.32-1.65-12.5z"
     id="path4"
     fill="#ffffff" />
</svg>
