<?xml version="1.0" encoding="UTF-8" standalone="no"?>
<!-- Created with Inkscape (http://www.inkscape.org/) -->

<svg
   xmlns:dc="http://purl.org/dc/elements/1.1/"
   xmlns:cc="http://creativecommons.org/ns#"
   xmlns:rdf="http://www.w3.org/1999/02/22-rdf-syntax-ns#"
   xmlns:svg="http://www.w3.org/2000/svg"
   xmlns="http://www.w3.org/2000/svg"
   xmlns:sodipodi="http://sodipodi.sourceforge.net/DTD/sodipodi-0.dtd"
   xmlns:inkscape="http://www.inkscape.org/namespaces/inkscape"
   version="1.1"
   id="svg2"
   width="128"
   height="128"
   viewBox="0 0 128 128"
   sodipodi:docname="OpenRGB.svg"
   inkscape:version="0.92.4 (5da689c313, 2019-01-14)">
  <metadata
     id="metadata8">
    <rdf:RDF>
      <cc:Work
         rdf:about="">
        <dc:format>image/svg+xml</dc:format>
        <dc:type
           rdf:resource="http://purl.org/dc/dcmitype/StillImage" />
        <dc:title></dc:title>
      </cc:Work>
    </rdf:RDF>
  </metadata>
  <defs
     id="defs6" />
  <sodipodi:namedview
     pagecolor="#ffffff"
     bordercolor="#666666"
     borderopacity="1"
     objecttolerance="10"
     gridtolerance="10"
     guidetolerance="10"
     inkscape:pageopacity="0"
     inkscape:pageshadow="2"
     inkscape:window-width="1920"
     inkscape:window-height="1027"
     id="namedview4"
     showgrid="false"
     inkscape:zoom="3.6875"
     inkscape:cx="44.576183"
     inkscape:cy="75.668793"
     inkscape:window-x="-8"
     inkscape:window-y="-8"
     inkscape:window-maximized="1"
     inkscape:current-layer="svg2" />
  <path
     style="fill:#000000"
     d="M 58.25,126.55553 C 56.4625,125.75309 55,124.39982 55,123.54827 55,122.69672 54.310547,122 53.467881,122 c -0.842665,0 -3.147728,-0.67504 -5.122362,-1.5001 -3.068998,-1.28231 -3.404411,-1.72401 -2.310263,-3.04238 0.954038,-1.14955 0.991256,-1.83101 0.146156,-2.67611 -0.8451,-0.8451 -0.837949,-1.49033 0.02808,-2.53383 C 47.103479,111.17039 47.055173,110.65213 46,110 c -1.161861,-0.71807 -1.161861,-1.10004 0,-2.5 1.161861,-1.39996 1.161861,-1.78193 0,-2.5 -1.055173,-0.65213 -1.103479,-1.17039 -0.209491,-2.24758 0.866028,-1.0435 0.873179,-1.68873 0.02808,-2.53383 -0.823244,-0.823246 -0.834078,-1.495 -0.03955,-2.452347 C 46.635245,96.734577 45.63657,95.800734 41.18866,93.473861 30.035372,87.639147 20.8909,75.754183 17.356901,62.5 15.77466,56.565839 15.635508,44.293991 17.079407,38.027806 22.414861,14.873194 45.584736,-2.0876528 68.386474,0.46993041 102.64077,4.312103 122.26221,41.894766 106.3786,73.239568 c -3.51424,6.935014 -13.27194,16.935835 -19.920449,20.416775 -4.596603,2.40663 -5.295253,3.144513 -4.809565,5.079647 0.380619,1.51651 0.119729,2.26907 -0.790178,2.27932 -1.048434,0.0118 -1.016125,0.23305 0.141592,0.96949 1.213627,0.77201 1.270341,1.32485 0.297063,2.89576 -0.987039,1.59311 -0.917739,2.05102 0.38612,2.55136 1.437246,0.55152 1.428625,0.78705 -0.09023,2.46537 -1.559012,1.72269 -1.560695,1.90111 -0.0235,2.49099 1.343254,0.51545 1.422669,0.91629 0.420726,2.12355 -0.980535,1.18148 -0.978528,1.79728 0.0097,2.98807 1.048075,1.26285 0.677397,1.73698 -2.345436,3 C 77.679847,121.32496 75.374784,122 74.532119,122 73.689453,122 73,122.65917 73,123.46482 c 0,3.3841 -9.610557,5.39789 -14.75,3.09071 z M 51.599476,80.239816 C 56.698952,66.5 56.698952,66.5 53.975238,64.540467 42.979119,56.629484 44.171261,40.034572 56.175636,33.910397 c 3.213696,-1.639505 5.40758,-2.026765 9.540356,-1.684043 6.283277,0.521058 9.83683,2.805276 13.017558,8.367663 4.200912,7.346465 2.013761,19.313187 -4.460667,24.405973 -2.552472,2.007775 -2.552472,2.007775 2.228545,15.003893 C 79.130988,87.151747 81.701264,93 82.213153,93 84.21873,93 92.300169,87.541936 96.472871,83.369234 105.2798,74.562304 110,62.891762 110,49.923834 110,26.239564 93.569046,6.7684732 70.251273,2.8206012 55.666074,0.35121866 41.714348,5.2054823 31.25205,16.389712 27.976415,19.891376 24.288237,24.838858 23.056099,27.384116 14.066071,45.955035 17.234258,68.712529 30.834134,83.254737 34.676895,87.363762 44.037141,93.983571 46,93.980432 c 0.275,-4.39e-4 2.794764,-6.183717 5.599476,-13.740616 z M 78,90.297067 c 0,-0.111614 -2.0372,-5.678084 -4.527112,-12.369933 -4.265609,-11.464186 -4.424459,-12.24488 -2.75,-13.515263 0.977412,-0.741545 2.108227,-1.362576 2.512924,-1.380068 0.404696,-0.01749 1.919119,-1.819902 3.365384,-4.005356 C 83.553595,48.520663 76.41771,34 64.302457,34 52.754839,34 45.244805,45.073617 49.529687,55.782591 c 1.521462,3.802509 5.712739,8.46254 8.429052,9.37176 0.595146,0.199211 -0.872015,5.364941 -3.463053,12.193067 C 52.023059,83.863498 50,89.488498 50,89.847418 50,90.206338 56.3,90.5 64,90.5 c 7.7,0 14,-0.09132 14,-0.202933 z"
     id="path12"
     inkscape:connector-curvature="0" />
</svg>
